<?xml version="1.0" encoding="utf-8"?>
<!-- Generator: Adobe Illustrator 15.0.2, SVG Export Plug-In . SVG Version: 6.00 Build 0)  -->
<!DOCTYPE svg PUBLIC "-//W3C//DTD SVG 1.1//EN" "http://www.w3.org/Graphics/SVG/1.1/DTD/svg11.dtd">
<svg version="1.1" id="Layer_1" xmlns="http://www.w3.org/2000/svg" xmlns:xlink="http://www.w3.org/1999/xlink" x="0px" y="0px"
	 width="360px" height="360px" viewBox="0 0 360 360" enable-background="new 0 0 360 360" xml:space="preserve">
<path fill="#90604A" d="M249.521,125.283l-6.004,0.68l-0.332-3.685c0,0-17.018,9.336-51.708,47.7
	c-10.671-3.339-39.599,14.053-53.04,12.003c-4.75-0.724-10.353-6.001-19.173,1.328c-8.819,7.329-5.817,19.339-5.817,19.339
	l-2.961,7.318l7.257-2.295c0,0,17.641,11.594,35.542,15.459c-1.978,0.646-6.021,2.457-5.486,6.365
	c3.101-5.188,7.059-4.588,7.059-4.588s7.846,0.406,1.527,8.175c6.332-5.323,3.101-6.985,2.944-8.97
	c1.103,0.117,2.2,0.204,3.286,0.239c13.406,0.437,24.365-8.538,32.09-18.048c-1,5.213-2.86,13.672-4.9,16.713
	c-1.988,2.966-8.342,3.004-11.344,8.676c3.336-3.337,10.343-5.004,10.343-5.004s-8.008,8.006-4.337,11.676
	c-0.668-6.005,6.005-10.344,6.005-10.344s3.336-2,3.002,8.008c2.336-10.342-1.041-8.812-0.333-13.345
	c0.914-5.856,5.855-19.151,8.798-26.753c0.825-1.375,1.567-2.684,2.212-3.885c2.861-5.328,9.841-22.047,9.841-22.047h-4.169
	C210.822,163,249.521,125.283,249.521,125.283z"/>
</svg>
