<?xml version="1.0" encoding="utf-8"?>
<!-- Generator: Adobe Illustrator 15.0.2, SVG Export Plug-In . SVG Version: 6.00 Build 0)  -->
<!DOCTYPE svg PUBLIC "-//W3C//DTD SVG 1.1//EN" "http://www.w3.org/Graphics/SVG/1.1/DTD/svg11.dtd">
<svg version="1.1" id="Layer_1" xmlns="http://www.w3.org/2000/svg" xmlns:xlink="http://www.w3.org/1999/xlink" x="0px" y="0px"
	 width="360px" height="360px" viewBox="0 0 360 360" enable-background="new 0 0 360 360" xml:space="preserve">
<path fill="#48C3CB" d="M179.895,200.817c-0.005-0.203-0.014-0.32-0.014-0.32l-0.285,0.012c3.766-1.385,3.427-5.379,3.427-5.379
	l-0.875,0.067c4.883-0.952,5.845-5.03,5.849-5.042c4.7-0.402,6.547-2.88,6.547-2.88l-2.423-0.397
	c11.101,2.076,15.513-3.792,15.513-3.792l-1.621-0.236c17.479,2.004,21.087-8.649,21.252-9.169
	c16.991-4.098,22.264-13.899,22.264-13.899c-8.87,7.464-20.645,8.581-32.646,7.821l-12.153-1.242
	c-10.626-1.363-20.699-3.006-28.305-1.735c6.436-4.313,6.736-9.596,6.736-9.596l-1.476,0.703
	c15.635-8.04,12.729-18.896,12.573-19.426c11.853-12.846,10.794-23.924,10.794-23.924c-3.229,11.127-12.391,18.593-22.784,24.626
	l-10.834,5.737c-11.572,5.752-22.718,10.713-27.483,17.694c-4.746,6.957-3.416,13.663-1.345,20.623
	c-2.625-3.533-6.816-5.834-11.557-5.834c-0.443,0-0.876,0.025-1.305,0.061c-0.1,0.01-0.199,0.018-0.3,0.029
	c-0.416,0.043-0.826,0.1-1.227,0.174c-0.049,0.008-0.096,0.021-0.144,0.031c-0.363,0.072-0.718,0.158-1.068,0.255
	c-0.091,0.024-0.183,0.05-0.274,0.076c-0.375,0.111-0.741,0.233-1.098,0.37c-0.072,0.027-0.14,0.058-0.21,0.086
	c-0.307,0.123-0.609,0.256-0.902,0.395c-0.079,0.037-0.159,0.074-0.236,0.113c-0.332,0.166-0.655,0.342-0.968,0.527
	c-0.075,0.045-0.149,0.092-0.223,0.138c-0.269,0.165-0.53,0.337-0.783,0.516c-0.06,0.042-0.121,0.082-0.181,0.126
	c-0.288,0.208-0.567,0.428-0.835,0.652c-0.07,0.059-0.139,0.117-0.207,0.177c-0.237,0.205-0.469,0.416-0.688,0.632
	c-0.036,0.035-0.074,0.068-0.11,0.104c-0.242,0.243-0.474,0.492-0.696,0.746c-0.059,0.068-0.117,0.136-0.175,0.203
	c-0.056,0.068-0.117,0.135-0.173,0.203l-0.047,0.074c-1.202,1.49-2.03,3.105-2.42,4.637c-1.343-0.137-3.142,0.034-4.78,1.379
	c1.651,2.531,3.411,3.723,4.577,4.277c0.614,10.553,5.333,33.118,28.451,35.9c7.805,0.94,16.982-2.558,29.679-6.914
	c3.17-1.087,6.511-1.222,10.03-2.048c14.034,10.668,30.704,28.724,57.722,19.135c-38.49-4.449-46.083-23.825-46.083-23.825
	s36.132-3.929,52.104-23.042C219.129,209.534,196.772,206.913,179.895,200.817z"/>
</svg>
