<?xml version="1.0" encoding="utf-8"?>
<!-- Generator: Adobe Illustrator 15.0.2, SVG Export Plug-In . SVG Version: 6.00 Build 0)  -->
<!DOCTYPE svg PUBLIC "-//W3C//DTD SVG 1.1//EN" "http://www.w3.org/Graphics/SVG/1.1/DTD/svg11.dtd">
<svg version="1.1" id="Layer_1" xmlns="http://www.w3.org/2000/svg" xmlns:xlink="http://www.w3.org/1999/xlink" x="0px" y="0px"
	 width="360px" height="360px" viewBox="0 0 360 360" enable-background="new 0 0 360 360" xml:space="preserve">
<path fill="#2C96D2" d="M203.139,162.977c0,0-12.533-5.985-17.957-4.302c-5.424,1.683-8.418,12.906-8.418,12.906
	c-1.309-18.893-18.518-46.202-20.949-45.267c-2.432,0.935-3.555,24.691-3.555,24.691s-14.59-13.468-16.273-11.411
	c-0.573,0.702,5.837,6.507,9.111,14.347c6.332,15.16,3.422,33.539,12.213,36.905c-7.295,4.864-27.123,37.224-25.813,38.159
	c1.309,0.935,4.116-2.431,4.116-2.431s-4.009,5.234-2.619,6.172c1.76,1.188,5.794-5.303,6.447-6.381
	c-0.49,0.82-2.657,4.589-1.584,5.259c0.926,0.578,3.18-2.993,3.18-2.993s0.847,1.303,1.31,1.309
	c1.025,0.017,2.993-2.805,2.993-2.805s-1.501,2.862-0.748,3.18c2.247,0.947,5.236-8.23,5.236-8.23s-0.676,3.379,0.188,3.741
	c0.52,0.218,1.684-1.496,1.684-1.496s0.742,2.602,1.496,2.619c2.271,0.051,4.863-7.67,4.863-7.67s4.024,2.77,5.237,2.058
	c1.792-1.051,1.122-8.231,1.122-8.231s19.08-7.668,24.691-18.891c5.611-11.225,8.043-23.756,10.662-26.001
	c2.619-2.244,5.424-5.612,30.115-5.799C227.829,160.732,203.139,162.977,203.139,162.977z"/>
</svg>
