<?xml version="1.0" encoding="utf-8"?>
<!-- Generator: Adobe Illustrator 15.0.2, SVG Export Plug-In . SVG Version: 6.00 Build 0)  -->
<!DOCTYPE svg PUBLIC "-//W3C//DTD SVG 1.1//EN" "http://www.w3.org/Graphics/SVG/1.1/DTD/svg11.dtd">
<svg version="1.1" id="Layer_1" xmlns="http://www.w3.org/2000/svg" xmlns:xlink="http://www.w3.org/1999/xlink" x="0px" y="0px"
	 width="360px" height="360px" viewBox="0 0 360 360" enable-background="new 0 0 360 360" xml:space="preserve">
<path fill="#ABA5D1" d="M260.34,123.408c-0.573,0.1-12.108,2.317-13.227,20.223c-0.03,0.021-0.061,0.042-0.091,0.063l0.003-0.097
	c0,0-6.131,3.422-6.528,13.924c-0.021,0.018-0.042,0.033-0.063,0.051l0.006-0.196c0,0-3.006,1.659-4.16,6.771
	c-0.012,0-4.645,0.443-6.432,5.669l0.205-0.944c0,0-4.352-0.977-6.443,2.969l0.059-0.318c0,0-7.283-1.607-8.826,4.043l-0.02-0.559
	c0,0-6.836-1.494-7.691,3.136c-1.186,0.286-6.789,1.876-6.553,6.376c-0.238,0.113-2.498,1.234-3.818,3.23
	c-16.966-6.085-43.639-12.554-51.275-73.255c-7.273,34.036,14.256,58.474,14.256,58.474s-35.783-2.618-54.402-28.509
	c9.313,26.025,37.715,32.186,54.844,37.433c5.281,10.24,7.234,20.037,9.607,28.201c-5.032,0.58-5.525,7.26-5.525,7.26l0.319,0.034
	c-4.375,0.874-4.686,5.32-4.686,5.32l0.007,0.001c-0.015,0.054-0.028,0.108-0.04,0.162c-4.733,0.649-6.275,4.43-6.282,4.445
	c-5.228-0.36-7.679,2.042-7.679,2.042l0.388,0.104c-0.026,0.013-0.053,0.025-0.079,0.038c-10.303-2.741-15.397,2.216-15.397,2.216
	l0.044,0.012c-0.058,0.018-0.117,0.034-0.173,0.053c-17.365-3.98-22.773,6.379-23.032,6.899c-19.355,1.59-26.82,11.446-26.82,11.446
	c11.016-6.677,24.137-5.884,37.186-2.995l13.128,3.445c13.795,4,26.649,8.334,35.799,6.206
	c13.188-3.064,15.585-15.264,21.542-25.705c14.053,4.333,36.811,5.062,45.459-4.125c1.254,0.308,3.514,0.483,6.797-0.711
	c-0.664-2.725-2.477-4.131-3.738-4.804c0.104-0.402,0.186-0.815,0.252-1.241c0.416-1.351,0.736-2.754,0.736-3.881
	c0-8.201-6.225-14.944-14.207-15.77c13.266-5.42,28.984-1.322,36.883-15.142c4.66-8.151,4.201-21.696,4.324-36.05l0.467-13.583
	c0.975-13.332,3.98-26.131,13.537-34.771C279,101,267.416,105.324,260.34,123.408z"/>
</svg>
