<?xml version="1.0" encoding="utf-8"?>
<!-- Generator: Adobe Illustrator 15.0.2, SVG Export Plug-In . SVG Version: 6.00 Build 0)  -->
<!DOCTYPE svg PUBLIC "-//W3C//DTD SVG 1.1//EN" "http://www.w3.org/Graphics/SVG/1.1/DTD/svg11.dtd">
<svg version="1.1" id="Layer_1" xmlns="http://www.w3.org/2000/svg" xmlns:xlink="http://www.w3.org/1999/xlink" x="0px" y="0px"
	 width="360px" height="360px" viewBox="0 0 360 360" enable-background="new 0 0 360 360" xml:space="preserve">
<path fill="#F47D39" d="M226.582,202.736c1.526,0,2.399,0.219,2.399,0.219s-2.836-3.711-6.11-6.767
	c0.218-1.527,2.183-0.218,2.183-0.218l-2.4-3.055c0,0,16.149,3.928,16.806,1.527c0.653-2.401-16.151-12.223-16.151-12.223
	s-20.297-21.607-33.67-30.479c-13.373-8.87-30.934-19.064-30.934-19.064s-8.729-18.116-23.134-19.207
	c-14.404-1.091-22.262,11.786-22.262,11.786s-6.329,2.619-9.822,6.111c4.147,1.964,12.659,2.4,12.659,2.4
	s10.477,15.277,15.496,32.52c3.144,10.797,15.615,19.111,24.5,23.819c-2.275,0.664-4.681,1.955-5.644,4.494
	c-2.041,5.379,5.751,9.461,5.751,9.461s-4.452-4.082-2.598-8.164c1.229-2.701,5.293-1.257,7.906,0.028
	c-1.517,0.897-2.822,2.168-3.507,3.972c-2.402,6.33,6.766,11.131,6.766,11.131s-5.239-4.801-3.056-9.602
	c2.183-4.803,12.004,1.527,12.004,1.527l-6.11-5.238c2.588-0.104,4.209-0.293,5.191-0.521c5.714,1.756,14.091,3.557,22.743,2.703
	c12.223,6.767,18.505,9.887,23.79,14.405c8.389,7.17,29.684,32.52,31.21,31.21c1.528-1.309-0.872-4.146-0.872-4.146
	s2.291,1.137,2.837,0.654c0.411-0.361-0.219-2.182-0.219-2.182s3.71,2.836,4.802,1.527S227.673,209.938,226.582,202.736z
	 M162.051,195.652l-3.39-2.906c0.988-0.04,1.803-0.095,2.486-0.16c2.326,1.074,3.916,1.699,4.25,1.828
	C164.292,194.689,163.132,195.084,162.051,195.652z"/>
</svg>
