<?xml version="1.0" encoding="utf-8"?>
<!-- Generator: Adobe Illustrator 15.0.2, SVG Export Plug-In . SVG Version: 6.00 Build 0)  -->
<!DOCTYPE svg PUBLIC "-//W3C//DTD SVG 1.1//EN" "http://www.w3.org/Graphics/SVG/1.1/DTD/svg11.dtd">
<svg version="1.1" id="Layer_1" xmlns="http://www.w3.org/2000/svg" xmlns:xlink="http://www.w3.org/1999/xlink" x="0px" y="0px"
	 width="360px" height="360px" viewBox="0 0 360 360" enable-background="new 0 0 360 360" xml:space="preserve">
<path fill="#F47D39" d="M223.505,111.913c0,0-3.483-2.089-7.665-2.787c0,0-6.271-12.195-20.732-10.801
	c-14.459,1.394-22.822,20.905-22.822,20.905c-23.692,12.893-28.918,79.094-28.918,79.094s-8.015,8.71-5.924,10.801
	c2.091,2.092,13.24-7.317,13.24-7.317c1.394,4.182-14.982,57.492-14.982,57.492s5.574,1.741,10.453-4.53
	c1.742,6.619,8.71,9.059,8.71,9.059s9.756-59.232,18.815-65.504c9.059-6.271,28.92-6.969,40.07-28.224
	c11.149-21.254-0.698-39.023-0.698-39.023s2.091-7.317,1.394-13.24C220.717,115.746,223.505,111.913,223.505,111.913z"/>
</svg>
