<?xml version="1.0" encoding="utf-8"?>
<!-- Generator: Adobe Illustrator 15.0.2, SVG Export Plug-In . SVG Version: 6.00 Build 0)  -->
<!DOCTYPE svg PUBLIC "-//W3C//DTD SVG 1.1//EN" "http://www.w3.org/Graphics/SVG/1.1/DTD/svg11.dtd">
<svg version="1.1" id="Layer_1" xmlns="http://www.w3.org/2000/svg" xmlns:xlink="http://www.w3.org/1999/xlink" x="0px" y="0px"
	 width="360px" height="360px" viewBox="0 0 360 360" enable-background="new 0 0 360 360" xml:space="preserve">
<path fill="#ABA5D1" d="M204.699,216.186c0,0-1.341-4.034-1.736-8.333c3.942-2.265,8.322-6.178,14.01-12.916
	c17.158-20.324,6.366-26.999,6.071-36.162c-0.272-8.492,6.335-21.116-3.694-33.786c-10.031-12.67-25.869-2.375-25.869-2.375
	s-6.069,0-7.653,1.056c0.263,2.64,1.584,6.599,1.584,6.599s-4.752,8.975-5.016,12.671c0,0-12.143,3.034-19.27,11.217
	s-10.294,33.127-10.294,33.127s-25.869,9.239-22.964,11.086c2.903,1.847,25.34,1.056,25.34,1.056s2.211,5.339,8.701,8.705
	c0.129,3.59,1.99,7.042,2.252,9.509c0.308,2.896-1.37,8.571-2.243,11.35c-1.064,3.39-6.599,12.143-5.278,13.198
	c1.318,1.056,4.223-7.919,5.542-7.392c1.32,0.528-1.319,12.012,0.528,12.144s1.32-12.671,2.64-13.728
	c1.319-1.055,4.752,11.087,6.599,10.295c1.849-0.793-4.883-10.487-5.543-14.254c-0.479-2.73-0.776-8.517,0.264-11.086
	c0.836-2.065,3.077-4.273,4.036-7.507c1.448,0.146,3.002,0.194,4.674,0.117c6.976-0.322,11.988,0.358,16.633-0.085
	c2.181,3.48,6.112,5.44,8.575,6.947c3.288,2.011,12.093,8.571,11.219,11.35c-1.065,3.39-6.599,11.745-5.279,12.802
	c1.32,1.058,3.959-7.787,5.543-6.995s-1.319,11.614,0.528,11.747c1.847,0.131,1.582-12.802,2.64-13.331
	c1.055-0.527,3.959,9.899,5.807,9.107c1.848-0.793-4.09-9.3-4.751-13.066C217.815,226.521,204.699,216.186,204.699,216.186z"/>
</svg>
