<?xml version="1.0" encoding="utf-8"?>
<!-- Generator: Adobe Illustrator 15.0.2, SVG Export Plug-In . SVG Version: 6.00 Build 0)  -->
<!DOCTYPE svg PUBLIC "-//W3C//DTD SVG 1.1//EN" "http://www.w3.org/Graphics/SVG/1.1/DTD/svg11.dtd">
<svg version="1.1" id="Layer_1" xmlns="http://www.w3.org/2000/svg" xmlns:xlink="http://www.w3.org/1999/xlink" x="0px" y="0px"
	 width="360px" height="360px" viewBox="0 0 360 360" enable-background="new 0 0 360 360" xml:space="preserve">
<path fill="#ABA5D1" d="M235.367,239.508l11.721,7.032l-37.508-46.623c0,0,2.084,0.261,2.084-1.302c0-1.563-3.906-4.429-3.906-4.429
	l-1.043-2.083c0,0,10.42,5.99,11.2,4.948c0.782-1.042-10.157-10.418-10.157-10.418s-7.51-15.007-18.56-29.288
	c-9.331-12.06-22.196-23.6-24.938-25.15c-5.99-3.386-12.503-22.399-28.262-22.921c-15.758-0.521-17.32,12.763-17.32,12.763
	s-4.688,4.428-5.991,7.814c3.907,2.083,8.075,3.125,8.075,3.125s2.865,8.856,4.688,9.898c0,0-3.906,15.628-1.302,23.442
	c2.604,7.814,19.014,25.004,31.776,31.386c12.764,6.381,30.57,6.363,30.57,6.363s14.004,7.004,17.877,10.438
	c8.627,7.643,27.87,36.725,27.87,36.725l-2.604-10.158l7.293,7.033l-1.303-3.907l2.865,2.083L235.367,239.508z"/>
</svg>
