<?xml version="1.0" encoding="utf-8"?>
<!-- Generator: Adobe Illustrator 15.0.2, SVG Export Plug-In . SVG Version: 6.00 Build 0)  -->
<!DOCTYPE svg PUBLIC "-//W3C//DTD SVG 1.1//EN" "http://www.w3.org/Graphics/SVG/1.1/DTD/svg11.dtd">
<svg version="1.1" id="Layer_1" xmlns="http://www.w3.org/2000/svg" xmlns:xlink="http://www.w3.org/1999/xlink" x="0px" y="0px"
	 width="360px" height="360px" viewBox="0 0 360 360" enable-background="new 0 0 360 360" xml:space="preserve">
<path fill="#6EC59B" d="M249.68,174.053c-26.924,9.684-49.537,6.466-71.299,0.617c1.439-1.214,1.701-3.317-0.032-6.632
	c1.673-0.897,2.706-2.429,2.632-4.859c3.374-0.524,6.164-2.072,7.569-5.282c4.894-0.484,9.233-1.953,11.898-5.088
	c3.376-0.78,5.921-2.283,6.992-4.829c7.88-0.353,14.663-2.136,17.923-6.522c5.205-1.479,10.641-3.813,16.175-7.305
	c-14.058,4.592-28.54,1.368-39.579,0.34c6.915-2.011,12.484-5.075,14.594-9.707c4.779-2.535,9.605-5.959,14.285-10.533
	c-13.21,7.687-28.607,7.308-39.715,8.77c0.016-0.015,0.032-0.027,0.047-0.042c-0.145,0.035-0.287,0.06-0.432,0.093
	c-0.906,0.123-1.781,0.26-2.623,0.417c-11.457,1.114-22.748-6.275-32.25,3.733c-6.905,7.278-2.935,18.891-5.857,29.787
	c-1.561-0.598-3.067-1.06-4.527-1.395c0.193-3.061-0.428-6.211-1.966-9.117c-4.444-8.387-14.842-11.585-23.229-7.143
	c-0.764,0.406-1.486,0.859-2.162,1.358c-0.355,0.263-0.684,0.549-1.014,0.833c-1.324-0.979-3.432-1.999-6.109-1.479
	c0.264,3.19,1.217,5.319,2.064,6.628c-0.938,1.833-1.563,3.812-1.803,5.855c-0.27,2.285,0.098,5.22,0.412,6.925
	c0.365,1.979,1.211,5.418,1.947,7.824c2.057,6.702,4.781,11.884,8.068,15.919c15.799,19.401,44.528,12.331,73.755,20.771
	c17.533,5.063,35.248,15.711,50.451,41.009c0,0-4.094-34.422-47.036-53.753C232.474,194.304,249.68,174.053,249.68,174.053z"/>
</svg>
