<?xml version="1.0" encoding="utf-8"?>
<!-- Generator: Adobe Illustrator 15.0.2, SVG Export Plug-In . SVG Version: 6.00 Build 0)  -->
<!DOCTYPE svg PUBLIC "-//W3C//DTD SVG 1.1//EN" "http://www.w3.org/Graphics/SVG/1.1/DTD/svg11.dtd">
<svg version="1.1" id="Layer_1" xmlns="http://www.w3.org/2000/svg" xmlns:xlink="http://www.w3.org/1999/xlink" x="0px" y="0px"
	 width="360px" height="360px" viewBox="0 0 360 360" enable-background="new 0 0 360 360" xml:space="preserve">
<path fill="#6EC59B" d="M245.037,126.875c-4.719-4.223-15.646-4.47-15.646-4.47s-9.189-8.446-23.596-3.479
	c-14.404,4.967-21.111,23.844-21.609,30.302c-20.861,19.374-47.686,64.08-47.686,64.08l3.974-1.739c0,0-24.341,27.57-20.117,31.792
	c2.11,2.111,22.46-16.559,31.015-20.025c3.295-1.335,8.101-1.886,13.33-2.197c0.12,0.085,0.241,0.168,0.361,0.241
	c2.234,1.366,20.49,4.596,20.49,4.596s-6.582,5.961,2.484,12.045c-5.465-8.443,0.124-10.804,0.124-10.804s5.34-4.719,12.542,0.496
	c-2.482-7.451-13.163-3.477-13.163-3.477s-6.663-1.838-12.219-3.558c5.858-0.253,11.367-0.646,15.075-1.905
	c0.23-0.078,0.47-0.173,0.705-0.262c0.832,1.025,1.926,2.199,3.02,2.868c2.236,1.366,20.49,4.596,20.49,4.596
	s-6.581,5.961,2.484,12.045c-5.463-8.443,0.125-10.804,0.125-10.804s5.34-4.719,12.541,0.496
	c-2.482-7.451-13.163-3.477-13.163-3.477s-18.006-4.967-19.497-6.209c-0.49-0.408-0.817-1.115-1.038-1.877
	c12.678-7.149,29.001-23.828,33.078-35.626c4.72-13.66-1.491-29.804-1.491-29.804l4.969-15.896
	C232.619,134.824,240.318,131.347,245.037,126.875z"/>
</svg>
