<?xml version="1.0" encoding="utf-8"?>
<!-- Generator: Adobe Illustrator 15.0.2, SVG Export Plug-In . SVG Version: 6.00 Build 0)  -->
<!DOCTYPE svg PUBLIC "-//W3C//DTD SVG 1.1//EN" "http://www.w3.org/Graphics/SVG/1.1/DTD/svg11.dtd">
<svg version="1.1" id="Layer_1" xmlns="http://www.w3.org/2000/svg" xmlns:xlink="http://www.w3.org/1999/xlink" x="0px" y="0px"
	 width="360px" height="360px" viewBox="0 0 360 360" enable-background="new 0 0 360 360" xml:space="preserve">
<path fill="#48C3CB" d="M232.43,223.989c-6.193-0.844-23.995-10.976-25.271-12.509c-0.836-1.003-0.467-5.514-0.112-8.505
	c11.248-2.262,23.328-7.364,29.042-17.874c10.041-18.464,5.674-25.282,6.467-33.865c0.275-2.959,4.767-10.892,4.767-10.892
	s7.317-1.361,10.21-2.381c-0.936-2.298-7.487-3.405-7.487-3.405s-1.532-12.167-20.763-12.082
	c-19.23,0.084-50.458,40.759-59.223,51.905s-66.285,33.015-63.988,37.779c2.298,4.766,49.354-15.314,49.354-15.314
	s-0.852,7.23-5.446,14.634c5.359,0,13.274-13.954,13.274-13.954s7.03,3.252,14.888,5.31l2.98,3.54l15.316,19.911
	c0,0-1.276,7.913,1.787,9.955c-0.256-2.809,1.277-8.679,1.277-8.679s3.828,0.254,10.21,9.444
	c-1.021-8.425-8.168-11.231-8.168-11.231s4.084-3.574,9.955,0.765c-1.787-6.382-10.8-3.226-14.295-4.594
	c-4.574-1.791-12.169-15.351-13.163-16.326c0.115-0.225,0.308-0.793,0.517-1.471c0.503,0.07,1.004,0.134,1.499,0.183
	c3.39,0.336,8.886,0.362,15.087-0.404c-0.705,2.004-1.538,4.764-1.387,6.276c0.254,2.552,28.845,15.061,28.845,15.061
	s-1.786,4.084,2.298,6.381c-0.256-4.85,2.808-5.359,2.808-5.359s5.871-0.255,6.638,11.23c2.553-8.168,0-11.23,0-11.23
	s3.573-2.043,7.402,1.53C245.193,219.65,237.14,224.631,232.43,223.989z"/>
</svg>
