<?xml version="1.0" encoding="utf-8"?>
<!-- Generator: Adobe Illustrator 15.0.2, SVG Export Plug-In . SVG Version: 6.00 Build 0)  -->
<!DOCTYPE svg PUBLIC "-//W3C//DTD SVG 1.1//EN" "http://www.w3.org/Graphics/SVG/1.1/DTD/svg11.dtd">
<svg version="1.1" id="Layer_1" xmlns="http://www.w3.org/2000/svg" xmlns:xlink="http://www.w3.org/1999/xlink" x="0px" y="0px"
	 width="360px" height="360px" viewBox="0 0 360 360" enable-background="new 0 0 360 360" xml:space="preserve">
<path fill="#90604A" d="M260.275,131.998c0,0-5.704-11.18-20.077-10.952c-14.374,0.229-25.325,25.439-36.048,29.204
	s-35.592,21.446-35.592,21.446s-70.727-44.033-74.376-38.786c-1.936,2.782,16.521,13.429,34.291,24.106
	c15.75,9.461,30.959,19.242,30.959,19.242s-4.107,3.422-5.932,7.757c-4.22,2.967-9.582,15.06-9.582,15.06s-9.126,8.669-8.213,9.581
	s20.99-10.495,20.99-10.495s-7.872,5.818-7.301,10.039c4.235-1.246,11.321-2.688,19.57-4.331c-0.753,4.394,0.124,7.649,0.124,7.649
	l15.708,20.653c0,0-5.236-1.745-9.309,2.618c8.726-2.328,13.962-0.873,13.962-0.873s2.909-2.909,11.928,0.581
	c-5.818-5.526-13.382-2.909-13.382-2.909l-13.962-18.908c0,0,4.119-5.503,6.291-11.087c3.27-0.666,6.596-1.36,9.897-2.081
	c-2.179,6.775-0.673,12.338-0.673,12.338l18.479,24.297c0,0-6.159-2.053-10.95,3.081c10.266-2.738,16.426-1.027,16.426-1.027
	s3.422-3.422,14.031,0.686c-6.844-6.503-15.742-3.424-15.742-3.424l-16.427-22.244c0,0,7.003-9.34,8.611-16.969
	c11.214-2.933,20.526-6.245,23.9-9.953c9.239-10.151,10.392-25.116,15.058-32.853c2.545-4.219,14.602-13.233,14.602-13.233
	s6.616-1.939,11.637-5.476C266.664,132.91,260.275,131.998,260.275,131.998z"/>
</svg>
