<?xml version="1.0" encoding="utf-8"?>
<!-- Generator: Adobe Illustrator 15.0.2, SVG Export Plug-In . SVG Version: 6.00 Build 0)  -->
<!DOCTYPE svg PUBLIC "-//W3C//DTD SVG 1.1//EN" "http://www.w3.org/Graphics/SVG/1.1/DTD/svg11.dtd">
<svg version="1.1" id="Layer_1" xmlns="http://www.w3.org/2000/svg" xmlns:xlink="http://www.w3.org/1999/xlink" x="0px" y="0px"
	 width="360px" height="360px" viewBox="0 0 360 360" enable-background="new 0 0 360 360" xml:space="preserve">
<path fill="#2C96D2" d="M207.656,215.174c0,0,1.922,0.855,2.563,0c0,0-5.767-61.084-29.06-75.607c0,0,1.508-19.436-12.401-25.631
	c-13.91-6.193-23.681,0.215-25.657,3.633c0,0-4.432-0.215-9.664,4.271c3.311,3.416,9.291,4.484,9.291,4.484
	s1.068,6.621,5.125,12.174c0,0-4.271,10.465-1.281,29.262c2.99,18.795,45.066,49.55,45.066,49.55s22.853,33.747,25.416,33.96
	c2.563,0.215,7.262-1.068,8.543-4.059C226.879,244.222,207.656,215.174,207.656,215.174z"/>
</svg>
