<?xml version="1.0" encoding="utf-8"?>
<!-- Generator: Adobe Illustrator 15.0.2, SVG Export Plug-In . SVG Version: 6.00 Build 0)  -->
<!DOCTYPE svg PUBLIC "-//W3C//DTD SVG 1.1//EN" "http://www.w3.org/Graphics/SVG/1.1/DTD/svg11.dtd">
<svg version="1.1" id="Layer_1" xmlns="http://www.w3.org/2000/svg" xmlns:xlink="http://www.w3.org/1999/xlink" x="0px" y="0px"
	 width="360px" height="360px" viewBox="0 0 360 360" enable-background="new 0 0 360 360" xml:space="preserve">
<path fill="#F47D39" d="M255.773,236.371l3.22,0.743c0,0-34.785-20.769-44.821-29.716c-10.26-9.147-26.563-31.542-35.658-41.849
	c-6.436-7.294-20.83-20.646-26.248-28.725c-3.942-5.88-8.42-17.829-21.792-18.077c-13.37-0.247-20.304,13.124-20.304,13.124
	s-5.944,0.992-8.172,3.715c3.467,2.229,8.172,2.972,8.172,2.972s4.457,3.466,5.2,21.791c0.731,18.061,21.19,44.766,41.694,50.035
	l-16.929,12.919c-2.272-0.095-5.203-0.178-7.662-0.116c-2.972-0.057-6.071-0.017-7.694,0.308c-1.973,0.395-7.429,3.095-7.429,3.095
	s4.051-1.218,5.447-1.362c0.485-0.05,1.032-0.076,1.61-0.091c-1.662,0.744-3.095,1.453-3.095,1.453s4.05-1.218,5.447-1.362
	c0.222-0.022,0.464-0.038,0.707-0.053c4.709,0.189,10.531,0.856,13.903,0.796c0.387-0.007,0.827-0.03,1.294-0.062
	c0.986,0.049,1.896,0.075,2.668,0.062c1.873-0.033,4.797-0.402,7.638-0.555c1.065,0.083,2.02,0.25,2.761,0.555
	c2.086,0.857,6.408,6.345,6.408,6.345s-2.059-4.107-4.047-6.766c0.597,0.098,1.143,0.231,1.603,0.421
	c2.084,0.857,6.406,6.345,6.406,6.345s-3.702-7.392-5.973-8.759c-2.255-1.358-10.462-1.177-10.462-1.177l16.375-10.359
	c16.585,2.043,28.813-1.53,38.723,0.578c4.964,1.058,17.582,10.152,17.582,10.152l0.247-1.485l32.191,19.563l-1.734-2.972
	l4.706,2.229L255.773,236.371z"/>
</svg>
