<?xml version="1.0" encoding="utf-8"?>
<!-- Generator: Adobe Illustrator 15.0.2, SVG Export Plug-In . SVG Version: 6.00 Build 0)  -->
<!DOCTYPE svg PUBLIC "-//W3C//DTD SVG 1.1//EN" "http://www.w3.org/Graphics/SVG/1.1/DTD/svg11.dtd">
<svg version="1.1" id="Layer_1" xmlns="http://www.w3.org/2000/svg" xmlns:xlink="http://www.w3.org/1999/xlink" x="0px" y="0px"
	 width="360px" height="360px" viewBox="0 0 360 360" enable-background="new 0 0 360 360" xml:space="preserve">
<path fill="#ABA5D1" d="M237.752,146.377c-2.502-3.547-37.111,4.826-37.111,4.826s6.078-4.002,3.07-7.299
	s-26.56,12.204-26.56,12.204s0.821-10.842-6.22-14.919c-7.039-4.079-18.436,3.674-18.436,3.674l-31.033,1.078
	c0,0,26.486,0.156,30.252,3.206c1.701,1.379,4.359,6.624,5.98,12.795c1.966,7.485,2.938,16.335,5.674,21.329
	c4.99,9.112,20.141,6.679,21.886,10.22c1.745,3.542-3.935,25.455-1.165,26.228c2.771,0.774,4.319-5.271,4.319-5.271
	s-0.542,6.052,2.861,6.324c3.403,0.271,3.438-6.035,3.438-6.035s1.464,7.199,3.987,6.961c2.524-0.236,2.54-5.659,2.54-5.659
	s3.539,4.056,6.528-0.215s-2.227-7.329-2.227-7.329s3.127,1.472,3.811,0.779c1.997-2.023-1.584-8.397-2.426-11.113
	c-2.159-6.963-2.912-19.441-14.481-25.313C205.832,169.144,240.254,149.923,237.752,146.377z"/>
</svg>
