<?xml version="1.0" encoding="utf-8"?>
<!-- Generator: Adobe Illustrator 15.0.2, SVG Export Plug-In . SVG Version: 6.00 Build 0)  -->
<!DOCTYPE svg PUBLIC "-//W3C//DTD SVG 1.1//EN" "http://www.w3.org/Graphics/SVG/1.1/DTD/svg11.dtd">
<svg version="1.1" id="Layer_1" xmlns="http://www.w3.org/2000/svg" xmlns:xlink="http://www.w3.org/1999/xlink" x="0px" y="0px"
	 width="360px" height="360px" viewBox="0 0 360 360" enable-background="new 0 0 360 360" xml:space="preserve">
<path fill="#E9658A" d="M253.09,214.023c-0.077-0.92-0.25-1.871-0.517-2.832l-0.011-0.086c-0.027-0.099-0.063-0.197-0.092-0.295
	c-0.026-0.088-0.053-0.176-0.082-0.264c-0.115-0.361-0.24-0.723-0.385-1.083c-0.018-0.045-0.037-0.089-0.057-0.134
	c-0.134-0.324-0.277-0.648-0.432-0.969c-0.043-0.09-0.084-0.176-0.129-0.264c-0.176-0.351-0.361-0.697-0.566-1.04
	c-0.039-0.067-0.083-0.135-0.123-0.201c-0.182-0.297-0.373-0.589-0.574-0.878c-0.055-0.078-0.108-0.158-0.165-0.236
	c-0.238-0.328-0.488-0.65-0.753-0.967c-0.063-0.074-0.128-0.146-0.189-0.219c-0.24-0.273-0.488-0.542-0.748-0.804
	c-0.057-0.06-0.113-0.119-0.172-0.178c-0.305-0.298-0.626-0.585-0.957-0.864c-0.08-0.066-0.165-0.132-0.247-0.199
	c-0.312-0.253-0.638-0.498-0.976-0.733c-0.045-0.03-0.087-0.063-0.132-0.093c-0.375-0.254-0.77-0.492-1.174-0.721
	c-0.097-0.055-0.195-0.107-0.294-0.161c-0.419-0.227-0.85-0.443-1.302-0.639c-1.472-0.639-2.986-1.032-4.502-1.211
	c1.617-3.122,2.503-6.662,2.148-10.977c-0.765-9.349-8.786-20.242-16.791-32.133l-7.354-11.56
	c-6.721-11.531-11.463-23.771-8.471-36.286c0,0-7.109,10.118-2.717,29.034c-0.303,0.295-4.861,4.898-3.578,13.449
	c-1.098-0.732-2.205-1.471-3.314-2.217l-11.087-7.875c-10.591-8.154-19.616-17.711-21.563-30.447c0,0-2.771,12.051,8.426,27.916
	c-0.231,0.533-4.735,11.391,9.611,22.189c-0.002,0.035-0.005,0.07-0.006,0.105l-0.086-0.061c0,0-0.543,7.179,8.342,13.349
	c0.004,0.025,0.009,0.051,0.013,0.076l-0.482-0.339c0,0-0.271,3.422,3.36,7.201c0,0-1.988,3.743,0.76,7.885
	c-0.021,0.032-0.045,0.064-0.065,0.097l-0.179-0.183c0,0-3.209,3.08-1.096,6.987l-0.209-0.202c0,0-5.156,5.006-1.69,9.354
	c-0.029,0.021-0.059,0.044-0.088,0.066l-0.722,0.47c-21.453,0.257-49.965-3.165-75.071-41.152
	c7.826,26.545,42.917,46.531,42.917,46.531s-16.31,16.39-57.509,3.901c23.297,21.723,48.272,10.694,67.298,6.027
	c3.221,2.4,6.566,4.014,9.316,6.524c11.016,10.056,18.82,14.19,27.191,16.684c26.934,8.027,42.075-14.686,46.048-23.135
	c1.329,0.051,3.918-0.212,7.135-2.338C257.434,214.85,254.42,214.174,253.09,214.023z"/>
</svg>
