<?xml version="1.0" encoding="utf-8"?>
<!-- Generator: Adobe Illustrator 15.0.2, SVG Export Plug-In . SVG Version: 6.00 Build 0)  -->
<!DOCTYPE svg PUBLIC "-//W3C//DTD SVG 1.1//EN" "http://www.w3.org/Graphics/SVG/1.1/DTD/svg11.dtd">
<svg version="1.1" id="Layer_1" xmlns="http://www.w3.org/2000/svg" xmlns:xlink="http://www.w3.org/1999/xlink" x="0px" y="0px"
	 width="360px" height="360px" viewBox="0 0 360 360" enable-background="new 0 0 360 360" xml:space="preserve">
<path fill="#E9658A" d="M250.141,136.807l0.416-1.249c-4.164-0.832-32.287,13.223-43.719,14.781
	c-14.048,1.915-30.811-2.498-56.625-3.122c0,0-6.246-11.035-19.778-10.618c-13.531,0.417-17.903,13.532-17.903,13.532
	s-3.955,1.873-6.245,4.58c4.164,1.249,7.078,1.664,7.078,1.664s4.58,7.911,7.078,10.201c-2.706,4.372,2.498,28.104,32.268,33.726
	c2.89,0.546,5.552,0.841,8.02,0.931c-1.833,2.945-4.737,6.501-7.341,9.121c-2.155,2.166-4.634,3.688-4.634,3.688
	s-3.295,0.009-4.372,0.209c-1.397,0.26-5.204,2.29-5.204,2.29l4.996-1.04l-4.164,3.954c0,0,3.967-2.397,5.415-2.914
	c2.046-0.731,6.417-1.178,8.534-1.664c2.608-0.602,7.734-2.474,10.41-2.499c0.04-0.001,0.09,0.004,0.133,0.004
	c-0.642,0.74-1.3,1.456-1.956,2.127c-2.547,2.603-5.463,4.531-5.463,4.531s-3.296,0.008-4.372,0.208
	c-1.397,0.26-5.205,2.29-5.205,2.29l4.997-1.041l-4.164,3.955c0,0,3.966-2.397,5.412-2.914c2.048-0.732,6.417-1.179,8.536-1.666
	c2.608-0.601,7.734-2.472,10.408-2.498c1.706-0.017,6.662,1.457,6.662,1.457s-5.301-3.059-7.285-3.33
	c-1.984-0.273-7.912,1.249-7.912,1.249s1.384-1.724,3.091-3.913c1.86,0.427,3.779,0.998,3.779,0.998s-1.508-0.869-3.216-1.723
	c2.015-2.598,4.304-5.627,5.298-7.23c0.842-1.357,2.38-4.498,3.486-6.814c10.338-5.345,14.421-16.172,18.58-22.954
	c2.867-4.676,10.783-12.566,15.197-15.821c9.797-7.226,43.51-21.86,43.51-21.86L250.141,136.807z M170.615,203.217
	c-0.733,2.023-2.703,5.023-5.024,7.869c-0.724-0.297-1.379-0.52-1.847-0.584c-1.983-0.271-7.911,1.25-7.911,1.25
	s5.433-6.764,8.061-10.531c2.475-0.098,4.735-0.418,6.794-0.934C170.759,201.204,170.824,202.638,170.615,203.217z"/>
</svg>
