<?xml version="1.0" encoding="utf-8"?>
<!-- Generator: Adobe Illustrator 15.0.2, SVG Export Plug-In . SVG Version: 6.00 Build 0)  -->
<!DOCTYPE svg PUBLIC "-//W3C//DTD SVG 1.1//EN" "http://www.w3.org/Graphics/SVG/1.1/DTD/svg11.dtd">
<svg version="1.1" id="Layer_1" xmlns="http://www.w3.org/2000/svg" xmlns:xlink="http://www.w3.org/1999/xlink" x="0px" y="0px"
	 width="360px" height="360px" viewBox="0 0 360 360" enable-background="new 0 0 360 360" xml:space="preserve">
<path fill="#48C3CB" d="M262.926,135.662c-1.167-1.557-5.642-3.111-5.642-3.111s-0.345-2.215-0.776-2.821
	c-0.989-1.386-5.059,0-5.059,0s-0.662-1.664-1.167-1.897c-0.647-0.299-2.82,0.438-2.82,0.438s0.585-2.601,0-3.112
	c-0.508-0.445-2.676,0.353-2.676,0.353s0.099-1.737-0.341-1.983c-0.641-0.357-2.724,1.096-2.724,1.096s2.671-3.738,1.944-4.814
	c-0.436-0.646-3.115,0-3.115,0s2.34-5.545,0.385-5.693c-1.955-0.147-26.058,25.048-38.525,43.328
	c-21.806,3.106-64.99,41.623-64.99,41.623c-23.306-1.156-31.16,14.382-31.16,14.382s-6.931,2.748-9.8,5.812
	c5.593,1.993,12.206,2.772,12.206,2.772s7.003,6.224,17.896,9.338c0,0,15.952,15.172,44.547,5.64
	c0.732-0.244,1.449-0.515,2.163-0.791c-0.024,2.031,0.165,5.166,1.533,5.558c-1.751-6.128,7.586-8.754,7.586-8.754
	s-2.44,4.563-2.042,6.128c0.715,2.801,8.462,7.878,8.462,7.878s-5.58-5.47-5.544-7.878c0.022-1.459,3.501-4.669,3.501-4.669
	s0.908,5.068,2.335,6.128c1.406,1.045,7.003,0.875,7.003,0.875s-5.887-1.836-6.42-3.793c-0.206-0.759,0.584-3.502,0.584-3.502
	l7.003,0.875c0,0-7.277-1.948-7.878-4.085c-1.609-5.72,15.914-11.747,14.333-19.909c7.13-9.728,10.76-18.218,10.76-18.218
	s17.119-19.452,15.952-22.564c-1.945-1.167-8.949,0.778-8.949,0.778s3.502-4.279,3.891-8.17
	C237.443,154.336,264.093,137.218,262.926,135.662z"/>
</svg>
