<?xml version="1.0" encoding="utf-8"?>
<!-- Generator: Adobe Illustrator 15.0.2, SVG Export Plug-In . SVG Version: 6.00 Build 0)  -->
<!DOCTYPE svg PUBLIC "-//W3C//DTD SVG 1.1//EN" "http://www.w3.org/Graphics/SVG/1.1/DTD/svg11.dtd">
<svg version="1.1" id="Layer_1" xmlns="http://www.w3.org/2000/svg" xmlns:xlink="http://www.w3.org/1999/xlink" x="0px" y="0px"
	 width="360px" height="360px" viewBox="0 0 360 360" enable-background="new 0 0 360 360" xml:space="preserve">
<path fill="#90604A" d="M210.322,199.881c0,0,20.074,15.432,21.079,13.551c0.563-1.052-21.089-29.166-38.714-55.42
	c-13.9-20.705-23.305-41.758-31.049-45.963c-17.566-9.535-31.117,6.023-31.117,6.023s-7.402,0.502-9.034,4.016
	c4.642,2.509,8.03,2.76,8.03,2.76s9.105,7.529,9.033,11.293c-0.206,10.949-15.057,18.568,3.514,43.664s60.228,28.105,60.228,28.105
	s16.437,33.753,18.569,34.129c2.135,0.377,0.502-4.015,0.502-4.015s12.045,18.696,15.057,17.064
	C239.432,253.459,210.322,199.881,210.322,199.881z"/>
</svg>
